<?xml version="1.0" encoding="UTF-8" standalone="no"?>
<!-- Generator: Adobe Illustrator 13.0.0, SVG Export Plug-In . SVG Version: 6.00 Build 14948)  -->

<svg
   version="1.2"
   id="Layer_3"
   x="0px"
   y="0px"
   width="184.79601"
   height="288.87482"
   viewBox="0 0 184.796 288.87481"
   xml:space="preserve"
   sodipodi:docname="megaduck.svg"
   inkscape:version="1.3.2 (091e20e, 2023-11-25)"
   xmlns:inkscape="http://www.inkscape.org/namespaces/inkscape"
   xmlns:sodipodi="http://sodipodi.sourceforge.net/DTD/sodipodi-0.dtd"
   xmlns="http://www.w3.org/2000/svg"
   xmlns:svg="http://www.w3.org/2000/svg"
   xmlns:rdf="http://www.w3.org/1999/02/22-rdf-syntax-ns#"
   xmlns:cc="http://creativecommons.org/ns#"
   xmlns:dc="http://purl.org/dc/elements/1.1/"
   xmlns:ns="&amp;#38;ns_sfw;"><defs
   id="defs43" /><sodipodi:namedview
   id="namedview41"
   pagecolor="#090e0e"
   bordercolor="#111111"
   borderopacity="1"
   inkscape:showpageshadow="0"
   inkscape:pageopacity="0"
   inkscape:pagecheckerboard="1"
   inkscape:deskcolor="#d1d1d1"
   showgrid="false"
   inkscape:zoom="0.51112606"
   inkscape:cx="-86.084439"
   inkscape:cy="198.58115"
   inkscape:window-width="1350"
   inkscape:window-height="1011"
   inkscape:window-x="525"
   inkscape:window-y="32"
   inkscape:window-maximized="0"
   inkscape:current-layer="Layer_3" />
<metadata
   id="metadata55">
	<rdf:RDF>
		<cc:Work
   rdf:about="">
			<dc:format>image/svg+xml</dc:format>
			<dc:type
   rdf:resource="http://purl.org/dc/dcmitype/StillImage" />
			
		</cc:Work>
	</rdf:RDF>
	<ns:sfw>
		<ns:slices />
		<ns:sliceSourceBounds
   x="867.765"
   y="-7652"
   width="184.796"
   height="16383"
   bottomLeftOrigin="true" />
	</ns:sfw>
</metadata>


<path
   id="path7"
   fill="#f4f4f4"
   d="m 124.05531,207.31287 c -0.44496,-0.14654 -0.91552,-0.21723 -1.40996,-0.17718 l -16.90418,1.39044 c -1.97308,0.16198 -3.4537,1.91979 -3.29186,3.89603 0.16362,1.97156 1.90274,3.44509 3.87582,3.28311 l 16.90311,-1.38764 c 1.97215,-0.16233 3.46437,-1.89434 3.30462,-3.86765 -0.12251,-1.47993 -1.1476,-2.69294 -2.47955,-3.13466 z m -0.41654,1.27412 c 0.83722,0.27413 1.48378,1.01926 1.56093,1.95674 0.10181,1.25278 -0.81509,2.33471 -2.06636,2.43817 l -16.90276,1.3867 c -1.25314,0.10275 -2.33378,-0.81474 -2.43817,-2.06636 -0.10275,-1.25314 0.81439,-2.33285 2.06659,-2.43595 l 16.90347,-1.38857 c 0.31249,-0.0257 0.59742,0.0183 0.8763,0.10927 z" />
<path
   id="path9"
   fill="#f4f4f4"
   d="m 124.82797,204.99413 c -0.7754,-0.27633 -1.6083,-0.40976 -2.48071,-0.3603 l -16.44077,0.9364 c -3.48624,0.20018 -6.160889,3.19782 -5.961279,6.68278 0.200179,3.48624 3.216739,6.17022 6.704279,5.96945 l 16.42078,-0.94292 c 3.4866,-0.20112 6.16218,-3.19841 5.962,-6.68465 -0.15038,-2.61477 -1.87913,-4.76897 -4.2043,-5.60076 z m -0.4371,1.26631 c 1.83562,0.65334 3.19497,2.34097 3.31299,4.41288 0.15911,2.76357 -1.9473,5.12128 -4.71145,5.2791 l -16.4211,0.93531 c -2.76544,0.1584 -5.12056,-1.94916 -5.27909,-4.71144 -0.15782,-2.76415 1.94823,-5.12092 4.71144,-5.2791 l 16.42114,-0.94385 c 0.69188,-0.0389 1.35629,0.0819 1.96704,0.29891 z" /><path
   id="path9-3-7"
   fill="#f4f4f4"
   d="m 31.377131,182.47051 c -0.51775,-0.23099 -1.07958,-0.35969 -1.67466,-0.35618 l -11.21443,0.0692 c -2.37806,0.0159 -4.30156,2.10671 -4.28716,4.66132 0.0147,2.55556 1.97292,4.63017 4.35189,4.61394 l 11.20106,-0.0746 c 2.37834,-0.0165 4.30246,-2.1071 4.28772,-4.66267 -0.0113,-1.91675 -1.11198,-3.55594 -2.66442,-4.25091 z m -0.34138,0.90918 c 1.2257,0.54621 2.09146,1.83056 2.09958,3.34933 0.012,2.02584 -1.50276,3.67025 -3.38824,3.68215 l -11.20102,0.0691 c -1.88636,0.0123 -3.41476,-1.61626 -3.42638,-3.64113 -0.0111,-2.02621 1.50338,-3.66995 3.38823,-3.68215 l 11.20135,-0.0753 c 0.47191,-0.002 0.91959,0.11061 1.32742,0.29208 z"
   style="stroke-width:0.705978" />
<path
   id="path11"
   fill="#f4f4f4"
   d="m 157.76563,205.13443 c -0.44762,-0.13819 -0.92037,-0.20039 -1.41209,-0.15042 l -16.87512,1.70347 c -1.9691,0.20016 -3.41656,1.98538 -3.21741,3.9573 0.19956,1.96782 1.96689,3.40886 3.93532,3.21059 l 16.87512,-1.70347 c 1.97037,-0.20076 3.4092,-1.96783 3.21126,-3.9372 -0.14924,-1.47704 -1.17837,-2.66296 -2.51708,-3.08027 z m -0.39262,1.28169 c 0.8422,0.25841 1.5026,0.99131 1.59729,1.92718 0.12558,1.24971 -0.77125,2.34956 -2.02036,2.47642 l -16.87479,1.70253 c -1.25005,0.12652 -2.34862,-0.77092 -2.47453,-2.01969 -0.12713,-1.25133 0.76963,-2.34802 2.01968,-2.47454 l 16.87452,-1.70474 c 0.31196,-0.0316 0.59766,0.007 0.87819,0.0928 z" />
<path
   id="path13"
   fill="#f4f4f4"
   d="m 158.49569,202.80197 c -0.78044,-0.26177 -1.61569,-0.37959 -2.48702,-0.31381 l -16.4213,1.24366 c -3.48188,0.26541 -6.09901,3.31293 -5.83421,6.79353 0.26541,3.48189 3.31286,6.10218 6.79508,5.83583 l 16.41909,-1.24339 c 3.48222,-0.26635 6.10029,-3.31353 5.83582,-6.79508 -0.19929,-2.6115 -1.96807,-4.73296 -4.30746,-5.52074 z m -0.43215,1.26751 c 1.84659,0.61854 3.23635,2.28009 3.39408,4.34976 0.21081,2.76011 -1.83227,5.16359 -4.59392,5.37278 l -16.41766,1.23646 c -2.75916,0.21115 -5.13639,-1.84588 -5.3466,-4.60471 -0.21047,-2.76104 1.83038,-5.16425 4.59298,-5.37311 l 16.41942,-1.24433 c 0.69103,-0.0518 1.33687,0.0491 1.95346,0.25529 z" />





<path
   id="path25"
   fill="#f4f4f4"
   d="m 170.09388,236.3567 c -0.8795,-0.42338 -1.93977,-0.79141 -3.0856,-1.06052 -4.58556,-1.07771 -9.38486,-0.2757 -10.63013,1.77995 l -21.41156,35.16955 c -1.25416,2.05064 1.49105,4.62478 6.08099,5.7029 4.58124,1.07938 9.3827,0.27653 10.6301,-1.77997 l 21.38956,-35.17791 c 0.94431,-1.54048 -0.34377,-3.36888 -2.99107,-4.64196 z m -1.42958,2.01492 c 0.57471,0.53751 2.71709,1.64306 2.38233,2.18618 l -21.17767,34.68667 c -0.65852,1.08837 -5.33638,1.49076 -7.76412,0.92062 -2.43221,-0.57265 -5.53773,-2.14273 -4.87046,-3.22816 l 21.18038,-35.162 c 0.65634,-1.08754 5.09182,-1.24619 7.51743,-0.67523 1.21825,0.28548 2.16241,0.75156 2.73489,1.2878 z"
   style="fill:#f4f4f4;fill-opacity:1;stroke:none;stroke-width:0.9;stroke-dasharray:none;stroke-opacity:1"
   sodipodi:nodetypes="cccccccccccccccccc" /><path
   id="path25-1"
   fill="#f4f4f4"
   d="m 146.89627,237.45893 c -0.8795,-0.42338 -1.93977,-0.79141 -3.0856,-1.06052 -4.58556,-1.07771 -9.38486,-0.2757 -10.63013,1.77995 l -21.41156,35.16955 c -1.25416,2.05064 1.49105,4.62478 6.08099,5.7029 4.58124,1.07938 9.3827,0.27653 10.6301,-1.77997 l 21.38956,-35.17791 c 0.94431,-1.54048 -0.34377,-3.36888 -2.99107,-4.64196 z m -1.42958,2.01492 c 0.57471,0.53751 2.71709,1.64306 2.38233,2.18618 l -21.17767,34.68667 c -0.65852,1.08837 -5.33638,1.49076 -7.76412,0.92062 -2.43221,-0.57265 -5.53773,-2.14273 -4.87046,-3.22816 l 21.18038,-35.162 c 0.65634,-1.08754 5.09182,-1.24619 7.51743,-0.67523 1.21825,0.28548 2.16241,0.75156 2.73489,1.2878 z"
   style="fill:#f4f4f4;fill-opacity:1;stroke:none;stroke-width:0.9;stroke-dasharray:none;stroke-opacity:1"
   sodipodi:nodetypes="cccccccccccccccccc" />


<path
   id="path31"
   fill="#f4f4f4"
   d="m 7.9105213,0.01533836 c -2.77254,-0.08646 -2.90891,0.185535 -5.34598,0.99608904 -1.83183,1.32734 -2.47727,1.588457 -2.47808,3.857323 L 1.3031817e-6,246.8788 C -0.0059987,262.31452 20.707561,288.8748 40.640001,288.8748 h 52.742 49.438999 c 23.18,0 41.98465,-18.816 41.975,-41.996 L 184.69534,5.0772914 c -5.1e-4,-1.213925 -0.46689,-1.371166 -2.13617,-3.053211 -2.16278,-1.86211904 -2.32411,-1.92796804 -7.39514,-1.92927804 L 7.7828213,0.05157236 Z M 7.8216213,1.5704984 178.89215,1.1178334 c 1.3604,0.263067 4.68474,3.302985 4.68413,4.515695 L 183.454,246.8868 c -0.006,12.20346 -5.37468,23.15031 -13.87946,30.60233 -7.14516,6.2607 -16.504,10.05467 -26.75654,10.05467 H 93.733001 c -0.002,-0.053 0.001,-0.04 0,-0.104 h -12.444 c 0,0.087 -0.011,0.069 -0.021,0.104 H 40.467071 C 11.053841,283.22758 1.1573613,250.1778 1.1620713,246.8788 L 1.5079313,4.8365184 c 2.2e-4,-0.153 0.33062,-3.42818 6.18097,-3.384716 z"
   sodipodi:nodetypes="ccssssssscsccccssssccsccsscc" />
<path
   id="circle33"
   fill="#f4f4f4"
   d="m 127.27,170.6568 c -6.817,0 -12.359,5.542 -12.359,12.359 0,6.818 5.542,12.36 12.359,12.36 6.818,0 12.36,-5.542 12.36,-12.36 0,-6.817 -5.542,-12.359 -12.36,-12.359 z m 0,1.338 c 6.095,0 11.021,4.927 11.021,11.021 0,6.094 -4.927,11.022 -11.021,11.022 -6.094,0 -11.021,-4.927 -11.021,-11.022 -10e-4,-6.094 4.926,-11.021 11.021,-11.021 z" />
<path
   id="circle35"
   fill="#f4f4f4"
   d="m 127.27,171.5138 c -6.344,0 -11.503,5.158 -11.503,11.503 0,6.344 5.158,11.503 11.503,11.503 6.345,0 11.503,-5.159 11.503,-11.503 0,-6.344 -5.158,-11.503 -11.503,-11.503 z m 0,1.337 c 5.621,0 10.164,4.544 10.164,10.165 0,5.62 -4.542,10.164 -10.164,10.164 -5.62,0 -10.164,-4.543 -10.164,-10.164 0,-5.621 4.543,-10.165 10.164,-10.165 z" /><path
   id="circle33-8"
   fill="#f4f4f4"
   d="m 47.560541,161.16717 c -15.58474,0 -28.25463,11.13465 -28.25463,24.83095 0,13.69832 12.66989,24.83297 28.25463,24.83297 15.58703,0 28.25692,-11.13465 28.25692,-24.83297 0,-13.6963 -12.66989,-24.83095 -28.25692,-24.83095 z m 0,2.68823 c 13.93414,0 25.19575,9.89903 25.19575,22.14272 0,12.2437 -11.2639,22.14474 -25.19575,22.14474 -13.93185,0 -25.19575,-9.89903 -25.19575,-22.14474 -0.002,-12.24369 11.26162,-22.14272 25.19575,-22.14272 z"
   style="stroke-width:2.14318" />
<path
   id="circle37"
   fill="#f4f4f4"
   d="m 159.761,168.6888 c -6.818,0 -12.36,5.542 -12.36,12.36 0,6.819 5.542,12.36 12.36,12.36 6.818,0 12.36,-5.541 12.36,-12.36 0,-6.818 -5.542,-12.36 -12.36,-12.36 z m 0,1.338 c 6.095,0 11.021,4.928 11.021,11.022 0,6.094 -4.927,11.021 -11.021,11.021 -6.094,0 -11.022,-4.927 -11.022,-11.021 0,-6.093 4.927,-11.022 11.022,-11.022 z" />
<path
   id="circle39"
   fill="#f4f4f4"
   d="m 159.761,169.5458 c -6.345,0 -11.504,5.159 -11.504,11.504 0,6.344 5.159,11.502 11.504,11.502 6.344,0 11.502,-5.157 11.502,-11.502 0,-6.345 -5.158,-11.504 -11.502,-11.504 z m 0,1.339 c 5.62,0 10.164,4.544 10.164,10.165 0,5.62 -4.544,10.164 -10.164,10.164 -5.621,0 -10.165,-4.544 -10.165,-10.164 0,-5.621 4.544,-10.165 10.165,-10.165 z" />
<path
   id="path41"
   fill="#f4f4f4"
   d="m 20.579001,8.6138024 c -3.892,0 -7.048,3.1769996 -7.048,7.0689996 v 38.852323 c 0,58.429445 28.59005,74.331375 32.48204,74.321465 l 96.070359,-0.24456 c 5.97798,-0.0152 29.07336,-26.63267 28.81816,-70.700028 l -0.24456,-42.2292 c -0.0225,-3.892935 -3.179,-7.0679996 -7.066,-7.0679996 z m 0,1.338 H 163.589 c 3.169,0 5.76949,2.5622456 5.73,5.7299996 l -0.73367,58.85215 c -0.0708,5.68156 -13.88294,52.171428 -28.4564,52.247968 l -93.135659,0.48911 c -14.20979,0.0746 -30.94613,-38.477728 -31.14304,-50.728678 l -0.97823,-60.86155 c -0.0509,-3.168591 2.541,-5.7309996 5.709,-5.7309996 z"
   sodipodi:nodetypes="csssssscccssssssscc" />
<path
   id="path43"
   fill="#f4f4f4"
   d="m 44.149001,22.124802 c -0.95,0 -1.735,0.786 -1.735,1.736 V 111.9268 c 0,0.95 0.785,1.735 1.735,1.735 H 140.981 c 0.95,0 1.736,-0.786 1.736,-1.735 V 23.860802 c 0,-0.95 -0.786,-1.736 -1.736,-1.736 z m 0,1.338 H 140.981 c 0.227,0 0.397,0.171 0.397,0.397 V 111.9258 c 0,0.227 -0.171,0.398 -0.397,0.398 H 44.149001 c -0.227,0 -0.397,-0.171 -0.397,-0.398 V 23.860802 c -10e-4,-0.227 0.17,-0.398 0.397,-0.398 z" />
<path
   id="circle45"
   fill="#f4f4f4"
   d="m 28.105911,30.745715 c -1.866,0 -3.388,1.522 -3.388,3.388 0,1.866 1.522,3.388 3.388,3.388 1.865,0 3.388,-1.522 3.388,-3.388 0,-1.866 -1.523,-3.388 -3.388,-3.388 z" />















<path
   id="path25-3"
   fill="#f4f4f4"
   d="m 123.89759,238.39363 c -0.8795,-0.42338 -1.93977,-0.79141 -3.0856,-1.06052 -4.58556,-1.07771 -9.38486,-0.2757 -10.63013,1.77995 l -21.411559,35.16955 c -1.25416,2.05064 1.49105,4.62478 6.08099,5.7029 4.58124,1.07938 9.382699,0.27653 10.630099,-1.77997 l 21.38956,-35.17791 c 0.94431,-1.54048 -0.34377,-3.36888 -2.99107,-4.64196 z m -1.42958,2.01492 c 0.57471,0.53751 2.71709,1.64306 2.38233,2.18618 l -21.17767,34.68667 c -0.65852,1.08837 -5.336379,1.49076 -7.764119,0.92062 -2.43221,-0.57265 -5.53773,-2.14273 -4.87046,-3.22816 l 21.180379,-35.162 c 0.65634,-1.08754 5.09182,-1.24619 7.51743,-0.67523 1.21825,0.28548 2.16241,0.75156 2.73489,1.2878 z"
   style="fill:#f4f4f4;fill-opacity:1;stroke:none;stroke-width:0.9;stroke-dasharray:none;stroke-opacity:1"
   sodipodi:nodetypes="cccccccccccccccccc" /><path
   id="path25-6"
   fill="#f4f4f4"
   d="m 113.86647,256.24068 -9.92334,15.36051 c -0.34083,0.49282 -0.16802,0.6318 -1.42454,0.37363 -1.25884,-0.2593 -0.74777,-1.0567 -0.40241,-1.54819 l 9.83826,-15.44606 c 0.33971,-0.49244 1.46495,-0.35452 1.76125,-0.11171 0,0 0.32405,1.12589 0.15078,1.37182 z"
   style="fill:#f4f4f4;fill-opacity:1;stroke:none;stroke-width:0.435696;stroke-dasharray:none;stroke-opacity:1"
   sodipodi:nodetypes="ccccccc" /><path
   id="path25-6-3"
   fill="#f4f4f4"
   d="m 133.97418,248.66059 -9.92334,15.36051 c -0.34083,0.49282 -0.16802,0.6318 -1.42454,0.37363 -1.25884,-0.2593 -0.74777,-1.0567 -0.40241,-1.54819 l 9.83826,-15.44606 c 0.33971,-0.49244 1.46495,-0.35452 1.76125,-0.11171 0,0 0.32405,1.12589 0.15078,1.37182 z"
   style="fill:#f4f4f4;fill-opacity:1;stroke:none;stroke-width:0.435696;stroke-dasharray:none;stroke-opacity:1"
   sodipodi:nodetypes="ccccccc" /><path
   id="path25-6-31"
   fill="#f4f4f4"
   d="m 153.97418,254.66059 -9.92334,15.36051 c -0.34083,0.49282 -0.16802,0.6318 -1.42454,0.37363 -1.25884,-0.2593 -0.74777,-1.0567 -0.40241,-1.54819 l 9.83826,-15.44606 c 0.33971,-0.49244 1.46495,-0.35452 1.76125,-0.11171 0,0 0.32405,1.12589 0.15078,1.37182 z"
   style="fill:#f4f4f4;fill-opacity:1;stroke:none;stroke-width:0.435696;stroke-dasharray:none;stroke-opacity:1"
   sodipodi:nodetypes="ccccccc" /><path
   id="path9-3"
   fill="#f4f4f4"
   d="m 79.246531,182.42697 c -0.51775,-0.23099 -1.07958,-0.35969 -1.67466,-0.35618 l -11.21443,0.0692 c -2.37806,0.0159 -4.30156,2.10671 -4.28716,4.66132 0.0147,2.55556 1.97292,4.63017 4.35189,4.61394 l 11.20106,-0.0746 c 2.37834,-0.0165 4.30246,-2.1071 4.28772,-4.66267 -0.0113,-1.91675 -1.11198,-3.55594 -2.66442,-4.25091 z m -0.34138,0.90918 c 1.2257,0.54621 2.09146,1.83056 2.09958,3.34933 0.012,2.02584 -1.50276,3.67025 -3.38824,3.68215 l -11.20102,0.0691 c -1.88636,0.0123 -3.41476,-1.61626 -3.42638,-3.64113 -0.0111,-2.02621 1.50338,-3.66995 3.38823,-3.68215 l 11.20135,-0.0753 c 0.47191,-0.002 0.91959,0.11061 1.32742,0.29208 z"
   style="stroke-width:0.705978" /><path
   id="path9-3-1"
   fill="#f4f4f4"
   d="m 51.654541,172.70462 c 0.23378,-0.5165 0.36551,-1.07762 0.36521,-1.67271 l -0.009,-11.21464 c -0.003,-2.37811 -2.08348,-4.31286 -4.63813,-4.31224 -2.5556,9.1e-4 -4.64074,1.94791 -4.63735,4.32693 l 0.0142,11.2013 c 0.004,2.3784 2.08387,4.31377 4.63948,4.31281 1.91678,-9.6e-4 3.56188,-1.09278 4.26522,-2.64145 z m -0.90733,-0.34628 c -0.55281,1.22274 -1.84181,2.08156 -3.3606,2.08148 -2.02588,0.001 -3.66209,-1.52253 -3.66382,-3.40805 l -0.009,-11.20123 c -0.002,-1.8864 1.63465,-3.40599 3.65955,-3.40669 2.02624,-1.7e-4 3.66179,1.52316 3.66382,3.40805 l 0.0149,11.20159 c -5.4e-4,0.47191 -0.11557,0.91898 -0.29923,1.32582 z"
   style="stroke-width:0.705978" /><path
   id="path9-3-1-9"
   fill="#f4f4f4"
   d="m 52.445391,213.93141 c 0.23378,-0.5165 0.36551,-1.07762 0.36521,-1.67271 l -0.009,-11.21464 c -0.003,-2.37811 -2.08348,-4.31286 -4.63813,-4.31224 -2.5556,9.1e-4 -4.64074,1.94791 -4.63735,4.32693 l 0.0142,11.2013 c 0.004,2.3784 2.08387,4.31377 4.63948,4.31281 1.91678,-9.6e-4 3.56188,-1.09278 4.26522,-2.64145 z m -0.90733,-0.34628 c -0.55281,1.22274 -1.84181,2.08156 -3.3606,2.08148 -2.02588,0.001 -3.66209,-1.52253 -3.66382,-3.40805 l -0.009,-11.20123 c -0.002,-1.8864 1.63465,-3.40599 3.65955,-3.40669 2.02624,-1.7e-4 3.66179,1.52316 3.66382,3.40805 l 0.0149,11.20159 c -5.4e-4,0.47191 -0.11557,0.91898 -0.29923,1.32582 z"
   style="stroke-width:0.705978" /></svg>
