<?xml version="1.0" encoding="UTF-8" standalone="no"?>
<svg
   id="svg2"
   version="1.1"
   viewBox="0 0 133.81517 75.463791"
   sodipodi:docname="1 - party games.svg"
   inkscape:version="1.3.2 (091e20e, 2023-11-25)"
   width="133.81517"
   height="75.463791"
   xmlns:inkscape="http://www.inkscape.org/namespaces/inkscape"
   xmlns:sodipodi="http://sodipodi.sourceforge.net/DTD/sodipodi-0.dtd"
   xmlns="http://www.w3.org/2000/svg"
   xmlns:svg="http://www.w3.org/2000/svg">
  <defs
     id="defs1" />
  <sodipodi:namedview
     id="namedview1"
     pagecolor="#505050"
     bordercolor="#ffffff"
     borderopacity="1"
     inkscape:showpageshadow="0"
     inkscape:pageopacity="0"
     inkscape:pagecheckerboard="1"
     inkscape:deskcolor="#505050"
     inkscape:zoom="2.8284271"
     inkscape:cx="63.286057"
     inkscape:cy="93.868426"
     inkscape:window-width="1452"
     inkscape:window-height="773"
     inkscape:window-x="227"
     inkscape:window-y="59"
     inkscape:window-maximized="0"
     inkscape:current-layer="svg2" />
  <g
     id="text1"
     style="font-size:37.8013px;font-family:'DejaVu Sans';-inkscape-font-specification:'DejaVu Sans, Normal';fill:#ffffff;stroke-width:2.95322;stroke-linecap:square;stroke-linejoin:round"
     aria-label="Party &#10;Games"
     transform="matrix(0.69351614,0,0,0.69351614,20.506092,11.564217)">
    <path
       style="font-family:Montserrat;-inkscape-font-specification:'Montserrat, @wght=700';font-variation-settings:'wght' 700"
       d="M 1.6632572,26.460911 V 7.6293945e-7 H 13.117051 q 3.553322,0 6.123811,1.17184033706055 2.570488,1.134039 3.969136,3.2887131 1.398648,2.1546741 1.398648,5.1409768 0,2.948501 -1.398648,5.103175 -1.398648,2.154675 -3.969136,3.326515 -2.570489,1.134039 -6.123811,1.134039 H 5.0653742 l 2.7216936,-2.759495 v 10.055146 z m 6.1238106,-9.374723 -2.7216936,-2.9107 h 7.7114648 q 2.835098,0 4.233746,-1.209641 1.398648,-1.209642 1.398648,-3.364316 0,-2.1924754 -1.398648,-3.402117 Q 15.611937,4.9897724 12.776839,4.9897724 H 5.0653742 L 7.7870678,2.0790723 Z m 33.0382282,9.374723 v -3.969137 l -0.378013,-0.86943 V 14.5157 q 0,-1.890065 -1.17184,-2.948501 -1.134039,-1.058437 -3.515521,-1.058437 -1.625456,0 -3.213111,0.529218 -1.549853,0.491417 -2.646091,1.360847 L 27.783848,8.2784855 q 1.663257,-1.1718403 4.006937,-1.8144624 2.343681,-0.6426221 4.762964,-0.6426221 4.64956,0 7.220048,2.1924754 2.570489,2.1924756 2.570489,6.8420356 v 11.604999 z m -6.199413,0.30241 q -2.381482,0 -4.082541,-0.793827 -1.701058,-0.831629 -2.608289,-2.230277 -0.907232,-1.398648 -0.907232,-3.137508 0,-1.814462 0.86943,-3.175309 0.907232,-1.360847 2.835098,-2.116873 1.927866,-0.793827 5.027573,-0.793827 h 5.405586 v 3.439918 h -4.762964 q -2.079072,0 -2.872899,0.680424 -0.756026,0.680423 -0.756026,1.701058 0,1.134039 0.86943,1.814463 0.907231,0.642622 2.457085,0.642622 1.47425,0 2.646091,-0.680424 1.17184,-0.718224 1.701058,-2.079071 l 0.907231,2.721693 q -0.642622,1.965668 -2.34368,2.986303 -1.701059,1.020635 -4.384951,1.020635 z M 51.67422,26.460911 V 6.1238114 h 5.632394 v 5.7457976 l -0.793828,-1.663257 q 0.907231,-2.1546743 2.9107,-3.250912 2.003469,-1.134039 4.876368,-1.134039 v 5.443387 q -0.378013,-0.0378 -0.680423,-0.0378 -0.302411,-0.0378 -0.642622,-0.0378 -2.419284,0 -3.931336,1.398648 -1.47425,1.360846 -1.47425,4.271547 v 9.60153 z m 25.175634,0.30241 q -3.591123,0 -5.594592,-1.814462 -2.003469,-1.852264 -2.003469,-5.481189 V 1.6254567 h 5.897003 V 19.392068 q 0,1.285244 0.680423,2.003469 0.680423,0.680423 1.852264,0.680423 1.398648,0 2.381482,-0.756026 l 1.587654,4.158143 q -0.907231,0.642622 -2.192475,0.982834 -1.247443,0.30241 -2.60829,0.30241 z M 66.114285,11.113583 V 6.577427 H 80.21417 v 4.536156 z m 21.055293,22.98319 q -1.587655,0 -3.137508,-0.491416 -1.549853,-0.491417 -2.532687,-1.360847 l 2.154674,-4.195945 q 0.680423,0.604821 1.549853,0.945033 0.907231,0.340212 1.776661,0.340212 1.247443,0 1.965668,-0.604821 0.756026,-0.56702 1.360847,-1.927867 l 1.058436,-2.494885 0.453616,-0.642622 7.295651,-17.5398036 h 5.670191 L 95.599268,27.708354 q -0.982834,2.457084 -2.268078,3.855732 -1.247443,1.398648 -2.797297,1.965668 -1.512052,0.567019 -3.364315,0.567019 z M 90.647297,27.254738 81.574985,6.1238114 h 6.08601 l 7.031041,17.0105846 z"
       id="path1" />
    <path
       style="font-family:Montserrat;-inkscape-font-specification:'Montserrat, @wght=700';font-variation-settings:'wght' 700"
       d="m 14.440097,75.46379 q -3.137508,0 -5.7835993,-0.982833 Q 6.048208,73.460322 4.0825404,71.608058 2.1546741,69.755794 1.0584364,67.260908 2.7656555e-8,64.766023 2.7656555e-8,61.77972 q 0,-2.986303 1.058436372343445,-5.481189 1.0962377,-2.494885 3.0619053,-4.347149 1.9656676,-1.852264 4.6117586,-2.835098 2.6460907,-1.020635 5.8214007,-1.020635 3.51552,0 6.312817,1.171841 2.835097,1.17184 4.762963,3.402117 l -3.931335,3.628924 q -1.436449,-1.512052 -3.137508,-2.230276 -1.701058,-0.756026 -3.704527,-0.756026 -1.927866,0 -3.515521,0.60482 -1.5876546,0.604821 -2.7594949,1.73886 -1.134039,1.134039 -1.7766611,2.683893 -0.6048208,1.549853 -0.6048208,3.439918 0,1.852264 0.6048208,3.402117 0.6426221,1.549853 1.7766611,2.721693 1.1718403,1.134039 2.7216939,1.73886 1.587654,0.604821 3.477719,0.604821 1.814463,0 3.515521,-0.567019 1.73886,-0.604821 3.364316,-2.003469 l 3.47772,4.422752 q -2.154675,1.625456 -5.027573,2.494886 -2.835098,0.869429 -5.670195,0.869429 z m 5.103175,-4.158143 v -9.941741 h 5.594593 v 10.735569 z m 23.323398,3.704528 v -3.969137 l -0.378013,-0.86943 v -7.106644 q 0,-1.890065 -1.17184,-2.948501 -1.134039,-1.058437 -3.515521,-1.058437 -1.625456,0 -3.21311,0.529218 -1.549854,0.491417 -2.646091,1.360847 L 29.825222,56.82775 q 1.663257,-1.171841 4.006938,-1.814463 2.34368,-0.642622 4.762963,-0.642622 4.64956,0 7.220049,2.192475 2.570488,2.192476 2.570488,6.842036 v 11.604999 z m -6.199413,0.30241 q -2.381482,0 -4.08254,-0.793827 -1.701059,-0.831629 -2.60829,-2.230277 -0.907231,-1.398648 -0.907231,-3.137508 0,-1.814462 0.86943,-3.175309 0.907231,-1.360847 2.835097,-2.116873 1.927866,-0.793827 5.027573,-0.793827 h 5.405586 v 3.439918 h -4.762964 q -2.079071,0 -2.872899,0.680424 -0.756026,0.680423 -0.756026,1.701058 0,1.134039 0.86943,1.814463 0.907231,0.642622 2.457085,0.642622 1.47425,0 2.646091,-0.680424 1.17184,-0.718224 1.701058,-2.079071 l 0.907231,2.721693 q -0.642622,1.965668 -2.34368,2.986303 -1.701059,1.020635 -4.384951,1.020635 z M 79.76069,54.370665 q 2.419283,0 4.271547,0.982834 1.890065,0.945032 2.948501,2.948501 1.096238,1.965668 1.096238,5.065374 V 75.010175 H 82.179973 V 64.274606 q 0,-2.457085 -1.020635,-3.628925 -1.020635,-1.17184 -2.872899,-1.17184 -1.285244,0 -2.305879,0.60482 -1.020635,0.56702 -1.587655,1.73886 -0.567019,1.17184 -0.567019,2.986303 V 75.010175 H 67.928883 V 64.274606 q 0,-2.457085 -1.020635,-3.628925 -0.982834,-1.17184 -2.835098,-1.17184 -1.285244,0 -2.305879,0.60482 -1.020635,0.56702 -1.587655,1.73886 -0.567019,1.17184 -0.567019,2.986303 v 10.206351 h -5.897003 v -20.3371 h 5.632394 v 5.556792 l -1.058437,-1.625456 q 1.058437,-2.079072 2.986303,-3.137508 1.965668,-1.096238 4.460553,-1.096238 2.797297,0 4.876368,1.436449 2.116873,1.398649 2.797296,4.309349 L 71.331,59.549443 q 1.020635,-2.381482 3.250912,-3.78013 2.268078,-1.398648 5.178778,-1.398648 z m 23.85131,20.94192 q -3.47772,0 -6.123814,-1.360847 -2.60829,-1.360846 -4.044739,-3.704527 -1.43645,-2.381482 -1.43645,-5.405586 0,-3.061905 1.398648,-5.405586 1.43645,-2.381482 3.893534,-3.704527 2.457085,-1.360847 5.556791,-1.360847 2.9863,0 5.36779,1.285244 2.41928,1.247443 3.81793,3.628925 1.39864,2.343681 1.39864,5.632394 0,0.340211 -0.0378,0.793827 -0.0378,0.415814 -0.0756,0.793827 H 96.807762 v -3.439918 h 13.419458 l -2.26807,1.020635 q 0,-1.587654 -0.64263,-2.759495 -0.64262,-1.17184 -1.77666,-1.814462 -1.13404,-0.680424 -2.64609,-0.680424 -1.51205,0 -2.68389,0.680424 -1.13404,0.642622 -1.776662,1.852264 -0.642622,1.17184 -0.642622,2.797296 v 0.907231 q 0,1.663257 0.718225,2.948501 0.756026,1.247443 2.079069,1.927867 1.36085,0.642622 3.17531,0.642622 1.62546,0 2.8351,-0.491417 1.24744,-0.491417 2.26808,-1.474251 l 3.13751,3.402117 q -1.39865,1.587655 -3.51553,2.457085 -2.11687,0.831628 -4.87636,0.831628 z m 20.60165,0 q -2.60829,0 -5.02758,-0.604821 -2.38148,-0.642622 -3.78013,-1.587654 l 1.96567,-4.233746 q 1.39865,0.86943 3.28871,1.43645 1.92787,0.529218 3.78013,0.529218 2.04127,0 2.8729,-0.491417 0.86943,-0.491417 0.86943,-1.360847 0,-0.718225 -0.68042,-1.058436 -0.64262,-0.378013 -1.73886,-0.56702 -1.09624,-0.189006 -2.41928,-0.378013 -1.28525,-0.189006 -2.60829,-0.491417 -1.32305,-0.340211 -2.41929,-0.982833 -1.09623,-0.642623 -1.77666,-1.73886 -0.64262,-1.096238 -0.64262,-2.835098 0,-1.927866 1.09624,-3.402117 1.13404,-1.47425 3.25091,-2.305879 2.11687,-0.86943 5.06537,-0.86943 2.07908,0 4.23375,0.453616 2.15467,0.453615 3.59112,1.323045 l -1.96566,4.195944 q -1.47425,-0.869429 -2.98631,-1.17184 -1.47425,-0.340212 -2.8729,-0.340212 -1.96566,0 -2.87289,0.529219 -0.90724,0.529218 -0.90724,1.360846 0,0.756026 0.64263,1.134039 0.68042,0.378013 1.77666,0.604821 1.09624,0.226808 2.38148,0.415815 1.32304,0.151205 2.64609,0.491416 1.32305,0.340212 2.38148,0.982834 1.09624,0.604821 1.77666,1.701059 0.68043,1.058436 0.68043,2.797296 0,1.890065 -1.13404,3.364316 -1.13404,1.436449 -3.28872,2.268078 -2.11687,0.831628 -5.17877,0.831628 z"
       id="path2" />
  </g>
</svg>
