<?xml version="1.0" encoding="UTF-8" standalone="no"?>
<svg
   id="svg2"
   version="1.1"
   viewBox="0 0 264 56"
   sodipodi:docname="2 - multiplayer.svg"
   inkscape:version="1.3.2 (091e20e, 2023-11-25)"
   xmlns:inkscape="http://www.inkscape.org/namespaces/inkscape"
   xmlns:sodipodi="http://sodipodi.sourceforge.net/DTD/sodipodi-0.dtd"
   xmlns="http://www.w3.org/2000/svg"
   xmlns:svg="http://www.w3.org/2000/svg">
  <defs
     id="defs1" />
  <sodipodi:namedview
     id="namedview1"
     pagecolor="#505050"
     bordercolor="#ffffff"
     borderopacity="1"
     inkscape:showpageshadow="0"
     inkscape:pageopacity="0"
     inkscape:pagecheckerboard="1"
     inkscape:deskcolor="#505050"
     inkscape:zoom="2.8284271"
     inkscape:cx="135.41095"
     inkscape:cy="21.38998"
     inkscape:window-width="1920"
     inkscape:window-height="1011"
     inkscape:window-x="0"
     inkscape:window-y="32"
     inkscape:window-maximized="1"
     inkscape:current-layer="svg2" />
  <path
     style="font-size:37.8013px;font-family:Montserrat;-inkscape-font-specification:'Montserrat, @wght=700';font-variation-settings:'wght' 700;fill:#ffffff;stroke-width:2.95322;stroke-linecap:square;stroke-linejoin:round"
     d="m 21.370447,39.056881 v -26.46091 h 5.065374 L 37.700608,31.269813 H 35.016716 L 46.092497,12.595971 h 5.027573 l 0.0756,26.46091 h -5.745797 l -0.0378,-17.653207 H 46.47051 L 37.625006,36.259585 H 34.865511 L 25.831,21.403674 h 1.285244 v 17.653207 z m 44.265319,0.30241 q -2.532687,0 -4.536156,-0.982833 -1.965667,-0.982834 -3.061905,-2.986303 -1.096238,-2.04127 -1.096238,-5.178778 V 18.719782 h 5.897003 v 10.622165 q 0,2.532687 1.058436,3.742329 1.096238,1.17184 3.061906,1.17184 1.360847,0 2.419283,-0.56702 1.058436,-0.60482 1.663257,-1.814462 0.604821,-1.247443 0.604821,-3.099707 V 18.719782 h 5.897003 v 20.337099 h -5.594593 v -5.594592 l 1.020635,1.625455 q -1.020635,2.116873 -3.024104,3.213111 -1.965667,1.058436 -4.309348,1.058436 z m 17.388538,-0.30241 V 11.008316 h 5.897003 v 28.048565 z m 21.177236,0.30241 q -3.59112,0 -5.594588,-1.814462 -2.003469,-1.852264 -2.003469,-5.481189 V 14.221427 h 5.897007 v 17.766611 q 0,1.285244 0.68042,2.003469 0.68042,0.680423 1.85226,0.680423 1.39865,0 2.38148,-0.756026 l 1.58766,4.158143 q -0.90723,0.642622 -2.19248,0.982834 -1.24744,0.30241 -2.60829,0.30241 z M 93.465975,23.709553 v -4.536156 h 14.099885 v 4.536156 z M 112.3288,39.056881 V 18.719782 h 5.897 v 20.337099 z m 2.9485,-23.172197 q -1.62545,0 -2.64609,-0.945032 -1.02063,-0.945033 -1.02063,-2.343681 0,-1.398648 1.02063,-2.343681 1.02064,-0.9450322 2.64609,-0.9450322 1.62546,0 2.64609,0.9072312 1.02064,0.86943 1.02064,2.268078 0,1.474251 -1.02064,2.457085 -0.98283,0.945032 -2.64609,0.945032 z m 20.45046,23.474607 q -2.57049,0 -4.49836,-1.134039 -1.92786,-1.134039 -3.0241,-3.439918 -1.05844,-2.343681 -1.05844,-5.897003 0,-3.591123 1.02064,-5.897003 1.02063,-2.305879 2.9485,-3.439918 1.92787,-1.134039 4.61176,-1.134039 2.8729,0 5.14097,1.323046 2.30588,1.285244 3.62893,3.628924 1.36085,2.343681 1.36085,5.51899 0,3.213111 -1.36085,5.556791 -1.32305,2.343681 -3.62893,3.628925 -2.26807,1.285244 -5.14097,1.285244 z m -12.02082,7.031042 V 18.719782 h 5.6324 v 4.158143 l -0.11341,6.048208 0.37802,6.010406 v 11.453794 z m 11.00018,-11.869608 q 1.47425,0 2.60829,-0.680423 1.17184,-0.680424 1.85227,-1.927867 0.71822,-1.285244 0.71822,-3.024104 0,-1.776661 -0.71822,-3.024104 -0.68043,-1.247443 -1.85227,-1.927866 -1.13404,-0.680423 -2.60829,-0.680423 -1.47425,0 -2.64609,0.680423 -1.17184,0.680423 -1.85226,1.927866 -0.68043,1.247443 -0.68043,3.024104 0,1.73886 0.68043,3.024104 0.68042,1.247443 1.85226,1.927867 1.17184,0.680423 2.64609,0.680423 z m 15.08267,4.536156 V 11.008316 h 5.897 v 28.048565 z m 23.85257,0 v -3.969137 l -0.37801,-0.869429 V 27.11167 q 0,-1.890065 -1.17184,-2.948501 -1.13404,-1.058437 -3.51552,-1.058437 -1.62546,0 -3.21311,0.529219 -1.54985,0.491416 -2.64609,1.360846 l -2.11687,-4.120341 q 1.66325,-1.171841 4.00693,-1.814463 2.34368,-0.642622 4.76297,-0.642622 4.64956,0 7.22005,2.192476 2.57048,2.192475 2.57048,6.842035 v 11.604999 z m -6.19941,0.30241 q -2.38148,0 -4.08254,-0.793827 -1.70106,-0.831629 -2.60829,-2.230277 -0.90723,-1.398648 -0.90723,-3.137508 0,-1.814462 0.86943,-3.175309 0.90723,-1.360847 2.8351,-2.116873 1.92786,-0.793827 5.02757,-0.793827 h 5.40559 v 3.439918 h -4.76297 q -2.07907,0 -2.8729,0.680424 -0.75602,0.680423 -0.75602,1.701058 0,1.134039 0.86943,1.814463 0.90723,0.642622 2.45708,0.642622 1.47425,0 2.64609,-0.680424 1.17184,-0.718224 1.70106,-2.079071 l 0.90723,2.721694 q -0.64262,1.965667 -2.34368,2.986302 -1.70106,1.020635 -4.38495,1.020635 z m 19.2408,7.333453 q -1.58765,0 -3.13751,-0.491417 -1.54985,-0.491417 -2.53268,-1.360847 l 2.15467,-4.195944 q 0.68042,0.60482 1.54985,0.945032 0.90723,0.340212 1.77666,0.340212 1.24745,0 1.96567,-0.604821 0.75603,-0.56702 1.36085,-1.927866 l 1.05844,-2.494886 0.45361,-0.642622 7.29565,-17.539803 h 5.6702 l -9.18572,21.584542 q -0.98283,2.457084 -2.26808,3.855732 -1.24744,1.398649 -2.79729,1.965668 -1.51206,0.56702 -3.36432,0.56702 z m 3.47772,-6.842036 -9.07231,-21.130926 h 6.08601 l 7.03104,17.010585 z m 26.08283,-0.491417 q -3.47772,0 -6.12381,-1.360846 -2.60829,-1.360847 -4.04474,-3.704528 -1.43645,-2.381482 -1.43645,-5.405586 0,-3.061905 1.39864,-5.405586 1.43645,-2.381482 3.89354,-3.704527 2.45708,-1.360847 5.55679,-1.360847 2.9863,0 5.36778,1.285244 2.41929,1.247443 3.81794,3.628925 1.39864,2.343681 1.39864,5.632394 0,0.340212 -0.0378,0.793827 -0.0378,0.415814 -0.0756,0.793827 H 209.44006 V 27.11167 h 13.41946 l -2.26807,1.020635 q 0,-1.587654 -0.64263,-2.759495 -0.64262,-1.17184 -1.77666,-1.814462 -1.13404,-0.680423 -2.64609,-0.680423 -1.51205,0 -2.68389,0.680423 -1.13404,0.642622 -1.77666,1.852264 -0.64262,1.17184 -0.64262,2.797296 v 0.907231 q 0,1.663257 0.71822,2.948501 0.75603,1.247443 2.07907,1.927867 1.36085,0.642622 3.17531,0.642622 1.62546,0 2.8351,-0.491417 1.24744,-0.491417 2.26808,-1.474251 l 3.1375,3.402117 q -1.39864,1.587655 -3.51552,2.457085 -2.11687,0.831628 -4.87636,0.831628 z m 13.75962,-0.30241 V 18.719782 h 5.63239 v 5.745797 l -0.79383,-1.663257 q 0.90724,-2.154674 2.9107,-3.250912 2.00347,-1.134039 4.87637,-1.134039 v 5.443387 q -0.37801,-0.0378 -0.68042,-0.0378 -0.30241,-0.0378 -0.64262,-0.0378 -2.41929,0 -3.93134,1.398648 -1.47425,1.360847 -1.47425,4.271547 v 9.60153 z"
     id="text1"
     aria-label="Multiplayer" />
</svg>
